<?xml version="1.0" encoding="UTF-8"?>
<!DOCTYPE svg PUBLIC "-//W3C//DTD SVG 1.1//EN" "http://www.w3.org/Graphics/SVG/1.1/DTD/svg11.dtd">
<svg xmlns="http://www.w3.org/2000/svg" version="1.1" width="1080px" height="1080px" style="shape-rendering:geometricPrecision; text-rendering:geometricPrecision; image-rendering:optimizeQuality; fill-rule:evenodd; clip-rule:evenodd" xmlns:xlink="http://www.w3.org/1999/xlink">
<g><path style="opacity:0.078" fill="#000000" d="M -0.5,68.5 C -0.5,68.1667 -0.5,67.8333 -0.5,67.5C 359.5,67.5 719.5,67.5 1079.5,67.5C 1079.5,67.8333 1079.5,68.1667 1079.5,68.5C 719.5,68.5 359.5,68.5 -0.5,68.5 Z"/></g>
<g><path style="opacity:0.785" fill="#b1b1b1" d="M 368.5,163.5 C 371.649,162.835 374.982,162.502 378.5,162.5C 382.239,162.514 385.572,163.18 388.5,164.5C 381.922,163.54 375.255,163.207 368.5,163.5 Z"/></g>
<g><path style="opacity:0.785" fill="#b2b2b2" d="M 619.5,163.5 C 613.077,163.209 606.744,163.542 600.5,164.5C 603.258,163.182 606.424,162.515 610,162.5C 613.352,162.502 616.518,162.835 619.5,163.5 Z"/></g>
<g><path style="opacity:0.785" fill="#aeaeae" d="M 658.5,163.5 C 654.731,163.244 651.064,163.577 647.5,164.5C 648.871,163.213 650.705,162.547 653,162.5C 655.033,162.506 656.866,162.839 658.5,163.5 Z"/></g>
<g><path style="opacity:0.785" fill="#b1b1b1" d="M 664.5,163.5 C 667.649,162.835 670.982,162.502 674.5,162.5C 678.239,162.514 681.572,163.18 684.5,164.5C 677.922,163.54 671.255,163.207 664.5,163.5 Z"/></g>
<g><path style="opacity:0.785" fill="#b2b2b2" d="M 741.5,163.5 C 735.077,163.209 728.744,163.542 722.5,164.5C 725.258,163.182 728.424,162.515 732,162.5C 735.352,162.502 738.518,162.835 741.5,163.5 Z"/></g>
<g><path style="opacity:1" fill="#f3f3f3" d="M 309.5,162.5 C 315.509,162.334 321.509,162.501 327.5,163C 329.333,163.5 330.5,164.667 331,166.5C 331.667,180.5 331.667,194.5 331,208.5C 330.535,209.931 329.701,211.097 328.5,212C 321.833,212.667 315.167,212.667 308.5,212C 307.667,211.167 306.833,210.333 306,209.5C 305.333,194.833 305.333,180.167 306,165.5C 307.145,164.364 308.312,163.364 309.5,162.5 Z M 315.5,171.5 C 317.167,171.5 318.833,171.5 320.5,171.5C 320.5,182.167 320.5,192.833 320.5,203.5C 318.833,203.5 317.167,203.5 315.5,203.5C 315.5,192.833 315.5,182.167 315.5,171.5 Z"/></g>
<g><path style="opacity:1" fill="#f9f9f9" d="M 359.5,163.5 C 360.458,163.953 361.292,164.619 362,165.5C 362.667,175.833 362.667,186.167 362,196.5C 361.167,197.333 360.333,198.167 359.5,199C 355.514,199.499 351.514,199.666 347.5,199.5C 347.5,203.833 347.5,208.167 347.5,212.5C 344.167,212.5 340.833,212.5 337.5,212.5C 337.5,196.167 337.5,179.833 337.5,163.5C 344.833,163.5 352.167,163.5 359.5,163.5 Z M 347.5,171.5 C 349.167,171.5 350.833,171.5 352.5,171.5C 352.5,177.833 352.5,184.167 352.5,190.5C 350.833,190.5 349.167,190.5 347.5,190.5C 347.5,184.167 347.5,177.833 347.5,171.5 Z"/></g>
<g><path style="opacity:1" fill="#f8f8f8" d="M 368.5,163.5 C 375.255,163.207 381.922,163.54 388.5,164.5C 389.219,166.764 389.552,169.097 389.5,171.5C 385.833,171.5 382.167,171.5 378.5,171.5C 378.5,175.833 378.5,180.167 378.5,184.5C 381.167,184.5 383.833,184.5 386.5,184.5C 386.5,187.167 386.5,189.833 386.5,192.5C 384.167,192.5 381.833,192.5 379.5,192.5C 379.5,196.167 379.5,199.833 379.5,203.5C 382.833,203.5 386.167,203.5 389.5,203.5C 389.148,206.428 388.482,209.262 387.5,212C 381.175,212.5 374.842,212.666 368.5,212.5C 368.5,196.167 368.5,179.833 368.5,163.5 Z"/></g>
<g><path style="opacity:1" fill="#ececec" d="M 405.5,195.5 C 405.631,194.624 405.298,193.957 404.5,193.5C 403.504,199.798 403.17,206.132 403.5,212.5C 400.5,212.5 397.5,212.5 394.5,212.5C 394.5,195.833 394.5,179.167 394.5,162.5C 398.106,162.211 401.606,162.544 405,163.5C 408.874,183.54 410.374,183.207 409.5,162.5C 413.106,162.211 416.606,162.544 420,163.5C 420.5,179.83 420.667,196.163 420.5,212.5C 416.563,212.793 412.73,212.46 409,211.5C 407.257,206.283 406.09,200.95 405.5,195.5 Z"/></g>
<g><path style="opacity:1" fill="#f2f2f2" d="M 436.5,162.5 C 443.841,162.334 451.174,162.5 458.5,163C 459.333,163.833 460.167,164.667 461,165.5C 462.611,174.732 462.945,184.065 462,193.5C 461.348,195.723 459.848,196.89 457.5,197C 459.552,202.039 461.218,207.205 462.5,212.5C 458.833,212.5 455.167,212.5 451.5,212.5C 447.408,191.588 445.742,191.588 446.5,212.5C 443.167,212.5 439.833,212.5 436.5,212.5C 436.464,195.625 436.464,178.958 436.5,162.5 Z M 446.5,171.5 C 448.167,171.5 449.833,171.5 451.5,171.5C 451.5,177.167 451.5,182.833 451.5,188.5C 449.833,188.5 448.167,188.5 446.5,188.5C 446.5,182.833 446.5,177.167 446.5,171.5 Z"/></g>
<g><path style="opacity:1" fill="#f8f8f8" d="M 487.5,163.5 C 488.219,165.764 488.552,168.097 488.5,170.5C 485.167,171.167 481.833,171.833 478.5,172.5C 478.5,176.167 478.5,179.833 478.5,183.5C 481.167,183.5 483.833,183.5 486.5,183.5C 486.5,186.5 486.5,189.5 486.5,192.5C 483.833,192.5 481.167,192.5 478.5,192.5C 478.5,196.167 478.5,199.833 478.5,203.5C 481.833,203.5 485.167,203.5 488.5,203.5C 488.037,206.482 487.704,209.482 487.5,212.5C 481.167,212.5 474.833,212.5 468.5,212.5C 468.5,196.167 468.5,179.833 468.5,163.5C 474.833,163.5 481.167,163.5 487.5,163.5 Z"/></g>
<g><path style="opacity:1" fill="#fafafa" d="M 514.5,170.5 C 511.167,171.167 507.833,171.833 504.5,172.5C 504.334,182.506 504.5,192.506 505,202.5C 508.459,203.133 511.959,203.8 515.5,204.5C 514.518,207.096 513.851,209.762 513.5,212.5C 508.156,212.666 502.823,212.499 497.5,212C 496.692,211.692 496.025,211.192 495.5,210.5C 494.35,195.545 494.183,180.545 495,165.5C 495.833,164.667 496.667,163.833 497.5,163C 502.823,162.501 508.156,162.334 513.5,162.5C 514.092,165.127 514.425,167.794 514.5,170.5 Z"/></g>
<g><path style="opacity:1" fill="#f7f7f7" d="M 520.5,162.5 C 527.841,162.334 535.174,162.5 542.5,163C 543.416,163.374 544.25,163.874 545,164.5C 546.615,174.4 546.949,184.4 546,194.5C 544.444,195.52 543.278,196.853 542.5,198.5C 544.043,203.127 545.376,207.793 546.5,212.5C 542.894,212.789 539.394,212.456 536,211.5C 531.154,191.189 529.321,191.522 530.5,212.5C 527.167,212.5 523.833,212.5 520.5,212.5C 520.5,195.833 520.5,179.167 520.5,162.5 Z M 530.5,171.5 C 532.467,171.261 534.301,171.594 536,172.5C 536.667,177.5 536.667,182.5 536,187.5C 534.301,188.406 532.467,188.739 530.5,188.5C 530.5,182.833 530.5,177.167 530.5,171.5 Z"/></g>
<g><path style="opacity:1" fill="#fcfcfc" d="M 562.5,203.5 C 564.167,203.5 565.833,203.5 567.5,203.5C 568.496,190.344 568.829,177.01 568.5,163.5C 571.5,163.5 574.5,163.5 577.5,163.5C 577.5,178.167 577.5,192.833 577.5,207.5C 577.703,209.39 577.037,210.89 575.5,212C 568.833,212.667 562.167,212.667 555.5,212C 553.624,211.082 552.624,209.582 552.5,207.5C 552.5,192.833 552.5,178.167 552.5,163.5C 555.5,163.5 558.5,163.5 561.5,163.5C 561.171,177.01 561.504,190.344 562.5,203.5 Z"/></g>
<g><path style="opacity:1" fill="#ededed" d="M 593.5,163.5 C 594.496,179.658 594.83,195.991 594.5,212.5C 591.167,212.5 587.833,212.5 584.5,212.5C 584.5,196.167 584.5,179.833 584.5,163.5C 587.5,163.5 590.5,163.5 593.5,163.5 Z"/></g>
<g><path style="opacity:1" fill="#f8f8f8" d="M 619.5,163.5 C 620.612,165.599 621.279,167.933 621.5,170.5C 619.5,171.167 617.5,171.833 615.5,172.5C 615.5,185.833 615.5,199.167 615.5,212.5C 612.167,212.5 608.833,212.5 605.5,212.5C 605.5,198.833 605.5,185.167 605.5,171.5C 602.918,171.975 600.918,171.308 599.5,169.5C 599.366,167.708 599.699,166.042 600.5,164.5C 606.744,163.542 613.077,163.209 619.5,163.5 Z"/></g>
<g><path style="opacity:1" fill="#f8f8f8" d="M 647.5,164.5 C 651.064,163.577 654.731,163.244 658.5,163.5C 658.5,179.833 658.5,196.167 658.5,212.5C 655.5,212.5 652.5,212.5 649.5,212.5C 649.666,205.159 649.5,197.826 649,190.5C 648.283,191.044 647.783,191.711 647.5,192.5C 646.573,197.613 645.24,202.613 643.5,207.5C 642.833,207.167 642.167,206.833 641.5,206.5C 640.103,201.809 638.603,197.143 637,192.5C 636.5,199.158 636.334,205.825 636.5,212.5C 633.167,212.5 629.833,212.5 626.5,212.5C 626.5,195.833 626.5,179.167 626.5,162.5C 630.226,162.177 633.893,162.511 637.5,163.5C 639.032,169.639 640.866,175.639 643,181.5C 644.352,175.755 645.852,170.089 647.5,164.5 Z"/></g>
<g><path style="opacity:1" fill="#f8f8f8" d="M 664.5,163.5 C 671.255,163.207 677.922,163.54 684.5,164.5C 685.219,166.764 685.552,169.097 685.5,171.5C 681.833,171.5 678.167,171.5 674.5,171.5C 674.5,175.833 674.5,180.167 674.5,184.5C 677.167,184.5 679.833,184.5 682.5,184.5C 682.5,187.167 682.5,189.833 682.5,192.5C 680.167,192.5 677.833,192.5 675.5,192.5C 675.5,196.167 675.5,199.833 675.5,203.5C 678.833,203.5 682.167,203.5 685.5,203.5C 685.148,206.428 684.482,209.262 683.5,212C 677.175,212.5 670.842,212.666 664.5,212.5C 664.5,196.167 664.5,179.833 664.5,163.5 Z"/></g>
<g><path style="opacity:1" fill="#ececec" d="M 701.5,195.5 C 701.631,194.624 701.298,193.957 700.5,193.5C 699.504,199.798 699.17,206.132 699.5,212.5C 696.5,212.5 693.5,212.5 690.5,212.5C 690.5,195.833 690.5,179.167 690.5,162.5C 694.106,162.211 697.606,162.544 701,163.5C 704.874,183.54 706.374,183.207 705.5,162.5C 709.106,162.211 712.606,162.544 716,163.5C 716.5,179.83 716.667,196.163 716.5,212.5C 712.563,212.793 708.73,212.46 705,211.5C 703.257,206.283 702.09,200.95 701.5,195.5 Z"/></g>
<g><path style="opacity:1" fill="#efefef" d="M 741.5,163.5 C 742.612,165.599 743.279,167.933 743.5,170.5C 741.5,171.167 739.5,171.833 737.5,172.5C 737.5,185.833 737.5,199.167 737.5,212.5C 733.833,212.5 730.167,212.5 726.5,212.5C 726.5,199.167 726.5,185.833 726.5,172.5C 724.5,172.5 722.5,172.5 720.5,172.5C 720.56,169.659 721.226,166.993 722.5,164.5C 728.744,163.542 735.077,163.209 741.5,163.5 Z"/></g>
<g><path style="opacity:0.216" fill="#7f7f7f" d="M 359.5,163.5 C 352.167,163.5 344.833,163.5 337.5,163.5C 337.5,179.833 337.5,196.167 337.5,212.5C 336.503,196.008 336.17,179.342 336.5,162.5C 344.352,162.175 352.018,162.508 359.5,163.5 Z"/></g>
<g><path style="opacity:0.533" fill="#9c9c9c" d="M 487.5,163.5 C 481.167,163.5 474.833,163.5 468.5,163.5C 468.5,179.833 468.5,196.167 468.5,212.5C 467.503,196.008 467.17,179.342 467.5,162.5C 474.354,162.176 481.021,162.509 487.5,163.5 Z"/></g>
<g><path style="opacity:0.851" fill="#9d9d9d" d="M 562.5,203.5 C 561.504,190.344 561.171,177.01 561.5,163.5C 558.5,163.5 555.5,163.5 552.5,163.5C 552.5,178.167 552.5,192.833 552.5,207.5C 551.504,192.676 551.171,177.676 551.5,162.5C 555.167,162.5 558.833,162.5 562.5,162.5C 562.5,176.167 562.5,189.833 562.5,203.5 Z"/></g>
<g><path style="opacity:0.721" fill="#919191" d="M 577.5,207.5 C 577.5,192.833 577.5,178.167 577.5,163.5C 574.5,163.5 571.5,163.5 568.5,163.5C 568.829,177.01 568.496,190.344 567.5,203.5C 567.5,189.833 567.5,176.167 567.5,162.5C 571.167,162.5 574.833,162.5 578.5,162.5C 578.829,177.676 578.496,192.676 577.5,207.5 Z"/></g>
<g><path style="opacity:0.722" fill="#adadad" d="M 593.5,163.5 C 590.5,163.5 587.5,163.5 584.5,163.5C 584.5,179.833 584.5,196.167 584.5,212.5C 583.503,196.008 583.17,179.342 583.5,162.5C 587.042,162.187 590.375,162.521 593.5,163.5 Z"/></g>
<g><path style="opacity:0.701" fill="#9f9f9f" d="M 488.5,170.5 C 489.043,170.56 489.376,170.893 489.5,171.5C 485.893,172.489 482.226,172.823 478.5,172.5C 481.833,171.833 485.167,171.167 488.5,170.5 Z"/></g>
<g><path style="opacity:0.701" fill="#9d9d9d" d="M 514.5,170.5 C 515.043,170.56 515.376,170.893 515.5,171.5C 511.893,172.489 508.226,172.823 504.5,172.5C 507.833,171.833 511.167,171.167 514.5,170.5 Z"/></g>
<g><path style="opacity:0.7" fill="#878787" d="M 599.5,169.5 C 600.918,171.308 602.918,171.975 605.5,171.5C 605.5,185.167 605.5,198.833 605.5,212.5C 604.504,199.344 604.171,186.01 604.5,172.5C 602.5,172.5 600.5,172.5 598.5,172.5C 598.263,171.209 598.596,170.209 599.5,169.5 Z"/></g>
<g><path style="opacity:0.698" fill="#959595" d="M 621.5,170.5 C 622.043,170.56 622.376,170.893 622.5,171.5C 620.257,172.474 617.924,172.808 615.5,172.5C 617.5,171.833 619.5,171.167 621.5,170.5 Z"/></g>
<g><path style="opacity:0.698" fill="#959595" d="M 743.5,170.5 C 744.043,170.56 744.376,170.893 744.5,171.5C 742.257,172.474 739.924,172.808 737.5,172.5C 739.5,171.833 741.5,171.167 743.5,170.5 Z"/></g>
<g><path style="opacity:1" fill="#f2f2f2" d="M 843.5,171.5 C 853.172,171.334 862.839,171.5 872.5,172C 874.329,172.273 875.829,173.107 877,174.5C 878.451,189.428 878.951,204.428 878.5,219.5C 873.527,220.164 868.527,220.497 863.5,220.5C 863.667,209.495 863.5,198.495 863,187.5C 856.256,186.521 849.422,186.188 842.5,186.5C 842.221,181.405 842.555,176.405 843.5,171.5 Z"/></g>
<g><path style="opacity:0.275" fill="#777777" d="M 347.5,171.5 C 347.5,177.833 347.5,184.167 347.5,190.5C 349.167,190.5 350.833,190.5 352.5,190.5C 350.735,191.461 348.735,191.795 346.5,191.5C 346.176,184.646 346.509,177.979 347.5,171.5 Z"/></g>
<g><path style="opacity:0.318" fill="#7c7c7c" d="M 276.5,180.5 C 251.167,180.5 225.833,180.5 200.5,180.5C 200.5,181.833 200.5,183.167 200.5,184.5C 199.549,183.081 199.216,181.415 199.5,179.5C 225.339,179.169 251.005,179.502 276.5,180.5 Z"/></g>
<g><path style="opacity:1" fill="#fdfdfd" d="M 276.5,180.5 C 283.639,183.727 284.306,188.227 278.5,194C 252.502,194.5 226.502,194.667 200.5,194.5C 200.5,191.167 200.5,187.833 200.5,184.5C 200.5,183.167 200.5,181.833 200.5,180.5C 225.833,180.5 251.167,180.5 276.5,180.5 Z"/></g>
<g><path style="opacity:1" fill="#f4f4f4" d="M 771.5,179.5 C 792.833,179.5 814.167,179.5 835.5,179.5C 835.5,184.5 835.5,189.5 835.5,194.5C 813.497,194.667 791.497,194.5 769.5,194C 763.781,188.118 764.448,183.285 771.5,179.5 Z"/></g>
<g><path style="opacity:1" fill="#f8f8f8" d="M 171.5,180.5 C 176.544,180.173 181.544,180.506 186.5,181.5C 187.448,186.435 187.781,191.435 187.5,196.5C 184.833,196.5 182.167,196.5 179.5,196.5C 179.667,218.836 179.5,241.169 179,263.5C 175.077,272.635 170.41,281.302 165,289.5C 164.333,254.833 164.333,220.167 165,185.5C 166.563,182.977 168.73,181.31 171.5,180.5 Z"/></g>
<g><path style="opacity:0.412" fill="#898989" d="M 389.5,171.5 C 386.375,172.479 383.042,172.813 379.5,172.5C 379.5,176.167 379.5,179.833 379.5,183.5C 382.167,183.5 384.833,183.5 387.5,183.5C 387.81,186.713 387.477,189.713 386.5,192.5C 386.5,189.833 386.5,187.167 386.5,184.5C 383.833,184.5 381.167,184.5 378.5,184.5C 378.5,180.167 378.5,175.833 378.5,171.5C 382.167,171.5 385.833,171.5 389.5,171.5 Z"/></g>
<g><path style="opacity:0.412" fill="#898989" d="M 685.5,171.5 C 682.375,172.479 679.042,172.813 675.5,172.5C 675.5,176.167 675.5,179.833 675.5,183.5C 678.167,183.5 680.833,183.5 683.5,183.5C 683.81,186.713 683.477,189.713 682.5,192.5C 682.5,189.833 682.5,187.167 682.5,184.5C 679.833,184.5 677.167,184.5 674.5,184.5C 674.5,180.167 674.5,175.833 674.5,171.5C 678.167,171.5 681.833,171.5 685.5,171.5 Z"/></g>
<g><path style="opacity:0.609" fill="#989898" d="M 649.5,212.5 C 648.833,205.833 648.167,199.167 647.5,192.5C 647.783,191.711 648.283,191.044 649,190.5C 649.5,197.826 649.666,205.159 649.5,212.5 Z"/></g>
<g><path style="opacity:0.75" fill="#a5a5a5" d="M 405.5,195.5 C 404.833,201.167 404.167,206.833 403.5,212.5C 403.17,206.132 403.504,199.798 404.5,193.5C 405.298,193.957 405.631,194.624 405.5,195.5 Z"/></g>
<g><path style="opacity:0.75" fill="#a5a5a5" d="M 701.5,195.5 C 700.833,201.167 700.167,206.833 699.5,212.5C 699.17,206.132 699.504,199.798 700.5,193.5C 701.298,193.957 701.631,194.624 701.5,195.5 Z"/></g>
<g><path style="opacity:0.063" fill="#6b6b6b" d="M 641.5,206.5 C 642.167,206.833 642.833,207.167 643.5,207.5C 642.377,208.757 641.711,208.424 641.5,206.5 Z"/></g>
<g><path style="opacity:1" fill="#f7f7f7" d="M 856.5,850.5 C 855.833,850.5 855.5,850.167 855.5,849.5C 855.5,642.5 855.5,435.5 855.5,228.5C 860.058,227.996 864.558,227.329 869,226.5C 869.333,226.833 869.667,227.167 870,227.5C 870.667,427.167 870.667,626.833 870,826.5C 865.741,834.689 861.241,842.689 856.5,850.5 Z"/></g>
<g><path style="opacity:0.051" fill="#555555" d="M 191.5,262.5 C 191.56,261.957 191.893,261.624 192.5,261.5C 193.773,262.257 193.773,262.923 192.5,263.5C 192.5,262.833 192.167,262.5 191.5,262.5 Z"/></g>
<g><path style="opacity:1" fill="#f8f8f8" d="M 191.5,262.5 C 192.167,262.5 192.5,262.833 192.5,263.5C 192.5,475.5 192.5,687.5 192.5,899.5C 268.834,899.333 345.167,899.5 421.5,900C 426.812,904.761 426.812,909.428 421.5,914C 341.5,914.667 261.5,914.667 181.5,914C 179.951,912.786 178.785,911.286 178,909.5C 177.333,702.167 177.333,494.833 178,287.5C 183.544,279.746 188.044,271.413 191.5,262.5 Z"/></g>
<g><path style="opacity:1" fill="#cfcfcf" d="M 362.5,281.5 C 359.402,280.179 355.902,279.512 352,279.5C 348.317,279.501 344.817,279.835 341.5,280.5C 341.167,280.5 340.833,280.5 340.5,280.5C 340.167,279.167 339.833,279.167 339.5,280.5C 327.402,279.852 315.402,279.186 303.5,278.5C 314.838,278.667 326.172,278.5 337.5,278C 334.982,274.628 333.649,271.128 333.5,267.5C 336.711,270.549 339.377,274.049 341.5,278C 349.167,278.333 356.833,278.667 364.5,279C 363.934,279.995 363.267,280.828 362.5,281.5 Z"/></g>
<g><path style="opacity:1" fill="#e9e9e9" d="M 283.5,273.5 C 286.32,273.248 288.986,273.748 291.5,275C 312.577,288.478 310.244,293.478 284.5,290C 283.527,284.593 283.193,279.093 283.5,273.5 Z"/></g>
<g><path style="opacity:1" fill="#f2f2f2" d="M 645.5,274.5 C 646.978,274.238 648.311,274.571 649.5,275.5C 652.459,281.082 655.126,286.748 657.5,292.5C 656.17,295.828 654.836,299.162 653.5,302.5C 649.603,303.934 646.103,303.267 643,300.5C 642.333,293.167 642.333,285.833 643,278.5C 643.662,277.016 644.496,275.683 645.5,274.5 Z"/></g>
<g><path style="opacity:0.933" fill="#d1d1d1" d="M 367.5,279.5 C 388.004,278.172 408.671,278.172 429.5,279.5C 429.376,280.107 429.043,280.44 428.5,280.5C 408.34,279.503 388.007,279.17 367.5,279.5 Z"/></g>
<g><path style="opacity:0.934" fill="#c4c4c4" d="M 456.5,279.5 C 448.5,279.5 440.5,279.5 432.5,279.5C 432.5,284.5 432.5,289.5 432.5,294.5C 431.207,289.265 430.874,283.931 431.5,278.5C 440.017,278.174 448.35,278.507 456.5,279.5 Z"/></g>
<g><path style="opacity:0.934" fill="#cbcbcb" d="M 703.5,279.5 C 714.321,278.505 725.321,278.172 736.5,278.5C 736.737,279.791 736.404,280.791 735.5,281.5C 725.219,279.524 714.552,278.857 703.5,279.5 Z"/></g>
<g><path style="opacity:1" fill="#f5f5f5" d="M 303.5,278.5 C 315.402,279.186 327.402,279.852 339.5,280.5C 339.833,280.5 340.167,280.5 340.5,280.5C 340.769,284.147 342.102,287.314 344.5,290C 343.556,291.477 342.223,292.477 340.5,293C 332.833,293.667 325.167,293.667 317.5,293C 312.833,287.16 307.167,282.494 300.5,279C 301.448,278.517 302.448,278.351 303.5,278.5 Z"/></g>
<g><path style="opacity:1" fill="#efefef" d="M 362.5,281.5 C 362.141,283.371 361.141,284.871 359.5,286C 354.943,285.918 350.776,287.085 347,289.5C 345.156,286.472 343.322,283.472 341.5,280.5C 344.817,279.835 348.317,279.501 352,279.5C 355.902,279.512 359.402,280.179 362.5,281.5 Z"/></g>
<g><path style="opacity:1" fill="#f7f7f7" d="M 367.5,279.5 C 388.007,279.17 408.34,279.503 428.5,280.5C 427.627,284.768 427.294,289.102 427.5,293.5C 426.833,293.5 426.167,293.5 425.5,293.5C 408.497,293.667 391.497,293.5 374.5,293C 372.23,288.402 369.563,284.069 366.5,280C 366.728,279.601 367.062,279.435 367.5,279.5 Z"/></g>
<g><path style="opacity:1" fill="#f8f8f8" d="M 456.5,279.5 C 457.468,281.607 457.802,283.941 457.5,286.5C 457.5,288.5 457.5,290.5 457.5,292.5C 453.5,292.5 449.5,292.5 445.5,292.5C 444.07,292.421 442.736,292.754 441.5,293.5C 438.804,296.273 435.971,298.94 433,301.5C 432.617,300.944 432.117,300.611 431.5,300.5C 431.833,298.5 432.167,296.5 432.5,294.5C 432.5,289.5 432.5,284.5 432.5,279.5C 440.5,279.5 448.5,279.5 456.5,279.5 Z"/></g>
<g><path style="opacity:1" fill="#e2e2e2" d="M 471.5,279.5 C 477.153,285.473 480.653,292.473 482,300.5C 479.833,298.333 477.667,296.167 475.5,294C 472.183,293.502 468.85,293.335 465.5,293.5C 465.5,288.5 465.5,283.5 465.5,278.5C 467.621,278.325 469.621,278.659 471.5,279.5 Z"/></g>
<g><path style="opacity:1" fill="#f3f3f3" d="M 471.5,279.5 C 474.64,278.359 477.973,278.192 481.5,279C 512,308.833 542.5,338.667 573,368.5C 573.5,397.831 573.667,427.165 573.5,456.5C 598.833,456.5 624.167,456.5 649.5,456.5C 649.333,424.832 649.5,393.165 650,361.5C 652.729,351.572 655.229,341.905 657.5,332.5C 659.49,333.873 661.657,334.873 664,335.5C 664.667,379.5 664.667,423.5 664,467.5C 662.833,468.667 661.667,469.833 660.5,471C 635.836,471.5 611.169,471.667 586.5,471.5C 586.649,470.448 586.483,469.448 586,468.5C 583.363,466.109 580.53,464.109 577.5,462.5C 575.485,461.076 573.152,460.41 570.5,460.5C 565.894,459.447 561.727,457.447 558,454.5C 557.333,448.167 557.333,441.833 558,435.5C 560.79,430.083 563.957,424.916 567.5,420C 564.183,419.502 560.85,419.335 557.5,419.5C 557.667,404.496 557.5,389.496 557,374.5C 535.305,352.471 513.305,330.805 491,309.5C 487.869,301.785 484.536,294.118 481,286.5C 478.499,283.152 475.332,280.818 471.5,279.5 Z"/></g>
<g><path style="opacity:1" fill="#d6d6d6" d="M 655.5,278.5 C 658.518,278.335 661.518,278.502 664.5,279C 663.072,281.783 661.738,284.617 660.5,287.5C 658.555,284.607 656.889,281.607 655.5,278.5 Z"/></g>
<g><path style="opacity:1" fill="#f9f9f9" d="M 703.5,279.5 C 714.552,278.857 725.219,279.524 735.5,281.5C 734.618,285.593 732.951,289.26 730.5,292.5C 709.66,292.831 688.993,292.497 668.5,291.5C 670.121,287.257 671.454,282.924 672.5,278.5C 680.528,278.169 688.528,278.502 696.5,279.5C 695.652,281.409 695.318,283.409 695.5,285.5C 696.93,285.421 698.264,285.754 699.5,286.5C 701.098,284.302 702.431,281.969 703.5,279.5 Z"/></g>
<g><path style="opacity:1" fill="#eeeeee" d="M 740.5,296.5 C 740.5,295.167 740.5,293.833 740.5,292.5C 739.167,292.5 737.833,292.5 736.5,292.5C 737.869,288.088 739.536,283.754 741.5,279.5C 742.325,278.614 743.325,278.281 744.5,278.5C 745.303,283.076 746.803,287.41 749,291.5C 750.667,289.5 752.333,287.5 754,285.5C 753.238,293.11 753.405,300.777 754.5,308.5C 756.67,306.914 759.004,305.58 761.5,304.5C 762.474,306.743 762.808,309.076 762.5,311.5C 757.803,312.133 753.303,313.466 749,315.5C 747.968,313.855 746.801,313.522 745.5,314.5C 743.329,308.65 741.663,302.65 740.5,296.5 Z"/></g>
<g><path style="opacity:1" fill="#dfdfdf" d="M 365.5,283.5 C 366.496,283.414 367.329,283.748 368,284.5C 369.3,287.295 370.8,289.961 372.5,292.5C 365.524,293.664 358.524,293.831 351.5,293C 355.716,291.926 359.716,290.259 363.5,288C 364.582,286.67 365.249,285.17 365.5,283.5 Z"/></g>
<g><path style="opacity:0.878" fill="#ababab" d="M 457.5,286.5 C 458.468,288.607 458.802,290.941 458.5,293.5C 453.968,293.818 449.634,293.485 445.5,292.5C 449.5,292.5 453.5,292.5 457.5,292.5C 457.5,290.5 457.5,288.5 457.5,286.5 Z"/></g>
<g><path style="opacity:0.878" fill="#c4c4c4" d="M 668.5,291.5 C 688.993,292.497 709.66,292.831 730.5,292.5C 709.663,293.828 688.663,293.828 667.5,292.5C 667.624,291.893 667.957,291.56 668.5,291.5 Z"/></g>
<g><path style="opacity:1" fill="#d0d0d0" d="M 425.5,293.5 C 426.167,293.5 426.833,293.5 427.5,293.5C 428.567,295.964 429.9,298.297 431.5,300.5C 431.585,301.995 430.919,302.995 429.5,303.5C 428.264,302.754 426.93,302.421 425.5,302.5C 425.5,299.5 425.5,296.5 425.5,293.5 Z"/></g>
<g><path style="opacity:0.847" fill="#959595" d="M 736.5,292.5 C 737.833,292.5 739.167,292.5 740.5,292.5C 740.5,293.833 740.5,295.167 740.5,296.5C 739.5,294.833 738.167,293.5 736.5,292.5 Z"/></g>
<g><path style="opacity:1" fill="#fafafa" d="M 296.5,294.5 C 300.298,295.483 304.298,295.817 308.5,295.5C 308.5,302.5 308.5,309.5 308.5,316.5C 303.622,318.705 299.622,322.039 296.5,326.5C 295.833,326.5 295.167,326.5 294.5,326.5C 294.333,315.495 294.5,304.495 295,293.5C 295.383,294.056 295.883,294.389 296.5,294.5 Z"/></g>
<g><path style="opacity:0.625" fill="#959595" d="M 296.5,294.5 C 300.833,294.5 305.167,294.5 309.5,294.5C 309.825,302.019 309.492,309.352 308.5,316.5C 308.5,309.5 308.5,302.5 308.5,295.5C 304.298,295.817 300.298,295.483 296.5,294.5 Z"/></g>
<g><path style="opacity:1" fill="#f6f6f6" d="M 429.5,327.5 C 428.5,327.5 427.5,327.5 426.5,327.5C 426.5,320.5 426.5,313.5 426.5,306.5C 430.487,304.715 434.154,302.215 437.5,299C 438.448,298.517 439.448,298.351 440.5,298.5C 440.832,308.522 440.499,318.522 439.5,328.5C 436.242,327.583 432.909,327.249 429.5,327.5 Z"/></g>
<g><path style="opacity:1" fill="#dedede" d="M 653.5,312.5 C 653.795,314.735 653.461,316.735 652.5,318.5C 651.685,317.571 650.852,316.571 650,315.5C 649.333,311.833 649.333,308.167 650,304.5C 653.136,306.164 654.303,308.831 653.5,312.5 Z"/></g>
<g><path style="opacity:1" fill="#dedede" d="M 661.5,307.5 C 662.5,307.5 663.5,307.5 664.5,307.5C 664.5,315.5 664.5,323.5 664.5,331.5C 662.023,331.949 660.023,331.283 658.5,329.5C 661.022,322.394 662.022,315.061 661.5,307.5 Z"/></g>
<g><path style="opacity:0.89" fill="#c4c4c4" d="M 738.5,300.5 C 739.693,300.97 740.36,301.97 740.5,303.5C 741.465,307.809 741.631,312.143 741,316.5C 740.581,317.672 739.915,318.672 739,319.5C 738.5,313.175 738.334,306.842 738.5,300.5 Z"/></g>
<g><path style="opacity:0.797" fill="#b0b0b0" d="M 426.5,306.5 C 426.5,313.5 426.5,320.5 426.5,327.5C 427.5,327.5 428.5,327.5 429.5,327.5C 428.432,328.434 427.099,328.768 425.5,328.5C 425.175,320.981 425.508,313.648 426.5,306.5 Z"/></g>
<g><path style="opacity:0.204" fill="#646464" d="M 653.5,312.5 C 654.797,314.693 654.797,317.027 653.5,319.5C 652.893,319.376 652.56,319.043 652.5,318.5C 653.461,316.735 653.795,314.735 653.5,312.5 Z"/></g>
<g><path style="opacity:1" fill="#f4f4f4" d="M 307.5,319.5 C 308.117,319.611 308.617,319.944 309,320.5C 309.667,338.5 309.667,356.5 309,374.5C 307.255,375.956 305.422,377.289 303.5,378.5C 301.96,376.613 300.293,374.78 298.5,373C 297.207,372.51 295.873,372.343 294.5,372.5C 294.333,358.829 294.5,345.163 295,331.5C 299.062,327.269 303.229,323.269 307.5,319.5 Z"/></g>
<g><path style="opacity:0.749" fill="#929292" d="M 738.5,321.5 C 739.497,321.47 740.164,321.97 740.5,323C 738.906,327.314 738.239,326.814 738.5,321.5 Z"/></g>
<g><path style="opacity:0.063" fill="#636363" d="M 652.5,323.5 C 653.302,322.115 653.969,322.282 654.5,324C 654.43,324.765 654.097,325.265 653.5,325.5C 653.672,324.508 653.338,323.842 652.5,323.5 Z"/></g>
<g><path style="opacity:1" fill="#e0e0e0" d="M 652.5,323.5 C 653.338,323.842 653.672,324.508 653.5,325.5C 655.52,333.679 654.353,341.346 650,348.5C 649.333,340.833 649.333,333.167 650,325.5C 650.708,324.619 651.542,323.953 652.5,323.5 Z"/></g>
<g><path style="opacity:1" fill="#8f8f8f" d="M 294.5,326.5 C 295.167,326.5 295.833,326.5 296.5,326.5C 295.762,328.76 294.762,328.927 293.5,327C 293.728,326.601 294.062,326.435 294.5,326.5 Z"/></g>
<g><path style="opacity:1" fill="#f7f7f7" d="M 429.5,335.5 C 433.198,335.552 436.865,335.886 440.5,336.5C 440.876,342.34 440.21,348.006 438.5,353.5C 437.207,355.364 437.207,357.364 438.5,359.5C 439.107,359.376 439.44,359.043 439.5,358.5C 440.651,363.65 440.817,368.984 440,374.5C 435.521,371.353 431.021,368.353 426.5,365.5C 426.5,355.5 426.5,345.5 426.5,335.5C 427.5,335.5 428.5,335.5 429.5,335.5 Z"/></g>
<g><path style="opacity:0.796" fill="#b0b0b0" d="M 429.5,335.5 C 428.5,335.5 427.5,335.5 426.5,335.5C 426.5,345.5 426.5,355.5 426.5,365.5C 425.506,355.347 425.172,345.014 425.5,334.5C 427.099,334.232 428.432,334.566 429.5,335.5 Z"/></g>
<g><path style="opacity:0.046" fill="#4b4b4b" d="M 738.5,345.5 C 739.629,347.628 739.796,349.961 739,352.5C 738.503,350.19 738.337,347.857 738.5,345.5 Z"/></g>
<g><path style="opacity:0.302" fill="#848484" d="M 438.5,353.5 C 438.216,355.415 438.549,357.081 439.5,358.5C 439.44,359.043 439.107,359.376 438.5,359.5C 437.207,357.364 437.207,355.364 438.5,353.5 Z"/></g>
<g><path style="opacity:1" fill="#f5f5f5" d="M 753.5,517.5 C 753.672,518.492 753.338,519.158 752.5,519.5C 746.716,507.316 742.216,494.65 739,481.5C 738.5,442.835 738.333,404.168 738.5,365.5C 744.524,366.113 748.857,363.78 751.5,358.5C 751.167,357.5 750.833,356.5 750.5,355.5C 746.917,357.36 743.251,359.027 739.5,360.5C 738.231,358.305 738.231,356.139 739.5,354C 741.615,353.443 743.615,352.609 745.5,351.5C 745.937,340.487 746.271,329.654 746.5,319C 748.762,318.358 750.929,317.525 753,316.5C 753.5,317 754,317.5 754.5,318C 753.512,329.753 753.179,341.586 753.5,353.5C 758.003,351.581 762.67,350.248 767.5,349.5C 767.799,351.604 767.466,353.604 766.5,355.5C 762.45,358.544 758.284,360.544 754,361.5C 753.5,413.499 753.333,465.499 753.5,517.5 Z"/></g>
<g><path style="opacity:1" fill="#d6d6d6" d="M 293.5,375.5 C 293.56,374.957 293.893,374.624 294.5,374.5C 297.135,375.811 299.469,377.478 301.5,379.5C 299.209,381.288 297.043,383.288 295,385.5C 294.5,385 294,384.5 293.5,384C 294.817,381.063 294.817,378.23 293.5,375.5 Z"/></g>
<g><path style="opacity:1" fill="#fcfcfc" d="M 427.5,378.5 C 432.975,380.136 437.142,383.47 440,388.5C 440.667,423.833 440.667,459.167 440,494.5C 438.542,500.988 438.042,507.655 438.5,514.5C 438.737,515.791 438.404,516.791 437.5,517.5C 433.833,514.167 430.167,510.833 426.5,507.5C 426.168,464.33 426.501,421.33 427.5,378.5 Z"/></g>
<g><path style="opacity:1" fill="#fafafa" d="M 308.5,378.5 C 308.83,394.342 308.496,410.009 307.5,425.5C 303.498,424.24 299.498,424.24 295.5,425.5C 294.502,415.856 294.168,406.19 294.5,396.5C 295.401,395.71 296.068,394.71 296.5,393.5C 296.5,393.167 296.5,392.833 296.5,392.5C 298.25,391.341 299.25,389.674 299.5,387.5C 301.117,385.879 302.284,383.879 303,381.5C 304.78,380.361 306.614,379.361 308.5,378.5 Z"/></g>
<g><path style="opacity:0.796" fill="#b6b6b6" d="M 427.5,378.5 C 426.501,421.33 426.168,464.33 426.5,507.5C 425.169,464.331 425.169,420.998 426.5,377.5C 427.107,377.624 427.44,377.957 427.5,378.5 Z"/></g>
<g><path style="opacity:0.624" fill="#a0a0a0" d="M 308.5,378.5 C 309.827,394.338 309.827,410.338 308.5,426.5C 307.893,426.376 307.56,426.043 307.5,425.5C 308.496,410.009 308.83,394.342 308.5,378.5 Z"/></g>
<g><path style="opacity:1" fill="#d9d9d9" d="M 299.5,387.5 C 297.75,388.659 296.75,390.326 296.5,392.5C 295.833,392.5 295.5,392.833 295.5,393.5C 294.833,393.5 294.5,393.167 294.5,392.5C 293.702,388.297 295.369,385.63 299.5,384.5C 300.087,385.233 300.087,386.233 299.5,387.5 Z"/></g>
<g><path style="opacity:0.027" fill="#565656" d="M 294.5,392.5 C 294.5,393.167 294.833,393.5 295.5,393.5C 295.833,393.5 296.167,393.5 296.5,393.5C 296.068,394.71 295.401,395.71 294.5,396.5C 293.646,394.965 293.646,393.632 294.5,392.5 Z"/></g>
<g><path style="opacity:1" fill="#f8f8f8" d="M 308.5,430.5 C 308.5,434.833 308.5,439.167 308.5,443.5C 303.833,443.5 299.167,443.5 294.5,443.5C 294.5,438.5 294.5,433.5 294.5,428.5C 299.4,428.033 304.067,428.699 308.5,430.5 Z"/></g>
<g><path style="opacity:0.582" fill="#9a9a9a" d="M 308.5,430.5 C 309.486,434.97 309.819,439.637 309.5,444.5C 304.305,444.821 299.305,444.487 294.5,443.5C 299.167,443.5 303.833,443.5 308.5,443.5C 308.5,439.167 308.5,434.833 308.5,430.5 Z"/></g>
<g><path style="opacity:1" fill="#f1f1f1" d="M 282.5,447.5 C 287.5,447.5 292.5,447.5 297.5,447.5C 297.666,453.509 297.499,459.509 297,465.5C 293.231,470.106 288.731,473.773 283.5,476.5C 282.506,467.014 282.173,457.348 282.5,447.5 Z"/></g>
<g><path style="opacity:0.489" fill="#929292" d="M 282.5,447.5 C 282.173,457.348 282.506,467.014 283.5,476.5C 283.44,477.043 283.107,477.376 282.5,477.5C 281.177,467.341 281.177,457.341 282.5,447.5 Z"/></g>
<g><path style="opacity:1" fill="#f0f0f0" d="M 528.5,507.5 C 526.152,507.67 523.818,508.003 521.5,508.5C 519.97,508.36 518.97,507.693 518.5,506.5C 521.998,500.767 523.498,494.434 523,487.5C 524.65,484.55 525.483,481.383 525.5,478C 524.822,472.442 523.822,466.942 522.5,461.5C 522.833,460.5 523.167,459.5 523.5,458.5C 531.295,463.345 539.295,463.679 547.5,459.5C 549.559,467.745 550.726,476.079 551,484.5C 544.667,490.833 538.333,497.167 532,503.5C 531.51,504.793 531.343,506.127 531.5,507.5C 530.5,507.5 529.5,507.5 528.5,507.5 Z M 531.5,471.5 C 535.182,471.335 538.848,471.501 542.5,472C 539,475.167 535.5,478.333 532,481.5C 531.502,478.183 531.335,474.85 531.5,471.5 Z"/></g>
<g><path style="opacity:0.949" fill="#a3a3a3" d="M 570.5,460.5 C 573.152,460.41 575.485,461.076 577.5,462.5C 574.848,462.59 572.515,461.924 570.5,460.5 Z"/></g>
<g><path style="opacity:1" fill="#e3e3e3" d="M 557.5,461.5 C 564.169,465.164 571.169,468.33 578.5,471C 569.804,469.597 562.637,472.097 557,478.5C 557.132,472.86 557.299,467.193 557.5,461.5 Z"/></g>
<g><path style="opacity:1" fill="#fcfcfc" d="M 307.5,463.5 C 308.167,488.833 308.833,514.167 309.5,539.5C 318.167,540.167 326.833,540.833 335.5,541.5C 334.488,542.872 333.488,544.205 332.5,545.5C 331.957,545.56 331.624,545.893 331.5,546.5C 335.982,547.167 340.316,547.834 344.5,548.5C 341.755,549.737 339.422,551.57 337.5,554C 338.435,556.381 338.768,558.881 338.5,561.5C 334.167,561.5 329.833,561.5 325.5,561.5C 325.993,559.194 326.326,556.861 326.5,554.5C 315.833,554.5 305.167,554.5 294.5,554.5C 294.5,531.833 294.5,509.167 294.5,486.5C 300.474,485.721 303.14,482.554 302.5,477C 299.3,476.899 296.3,476.232 293.5,475C 298.647,471.68 303.314,467.847 307.5,463.5 Z"/></g>
<g><path style="opacity:0.623" fill="#9f9f9f" d="M 307.5,463.5 C 307.56,462.957 307.893,462.624 308.5,462.5C 309.5,488.158 309.833,513.825 309.5,539.5C 308.833,514.167 308.167,488.833 307.5,463.5 Z"/></g>
<g><path style="opacity:0.996" fill="#cecece" d="M 516.5,460.5 C 518.411,464.012 520.078,467.846 521.5,472C 519.866,472.494 518.199,472.66 516.5,472.5C 516.5,468.5 516.5,464.5 516.5,460.5 Z"/></g>
<g><path style="opacity:1" fill="#f3f3f3" d="M 282.5,479.5 C 285.545,479.508 288.545,479.841 291.5,480.5C 291.736,485.037 289.736,488.037 285.5,489.5C 284.5,489.5 283.5,489.5 282.5,489.5C 282.5,486.167 282.5,482.833 282.5,479.5 Z"/></g>
<g><path style="opacity:0.49" fill="#919191" d="M 282.5,479.5 C 282.5,482.833 282.5,486.167 282.5,489.5C 283.5,489.5 284.5,489.5 285.5,489.5C 284.432,490.434 283.099,490.768 281.5,490.5C 281.185,486.629 281.518,482.962 282.5,479.5 Z"/></g>
<g><path style="opacity:1" fill="#d0d0d0" d="M 517.5,475.5 C 520.261,474.915 521.927,475.915 522.5,478.5C 520.391,481.95 518.724,485.616 517.5,489.5C 517.972,491.307 518.306,493.14 518.5,495C 517.598,499.202 516.598,503.368 515.5,507.5C 513.04,507.301 510.707,506.635 508.5,505.5C 510.817,502.683 513.317,500.016 516,497.5C 516.201,490.088 516.701,482.754 517.5,475.5 Z"/></g>
<g><path style="opacity:0.329" fill="#878787" d="M 518.5,506.5 C 518.97,507.693 519.97,508.36 521.5,508.5C 523.818,508.003 526.152,507.67 528.5,507.5C 525.155,509.217 521.489,509.884 517.5,509.5C 517.263,508.209 517.596,507.209 518.5,506.5 Z"/></g>
<g><path style="opacity:1" fill="#f8f8f8" d="M 740.5,509.5 C 747.441,520.338 751.775,532.005 753.5,544.5C 755.664,556.001 750.997,561.001 739.5,559.5C 739.303,555.63 738.469,551.963 737,548.5C 736.505,550.473 736.338,552.473 736.5,554.5C 735.566,555.568 735.232,556.901 735.5,558.5C 721.833,558.5 708.167,558.5 694.5,558.5C 692.311,555.726 692.311,553.059 694.5,550.5C 693.233,548.629 693.233,546.796 694.5,545C 709.163,544.5 723.83,544.333 738.5,544.5C 739.167,532.833 739.833,521.167 740.5,509.5 Z"/></g>
<g><path style="opacity:0.835" fill="#bdbdbd" d="M 740.5,509.5 C 739.833,521.167 739.167,532.833 738.5,544.5C 738.333,531.829 738.5,519.162 739,506.5C 740.039,507.244 740.539,508.244 740.5,509.5 Z"/></g>
<g><path style="opacity:1" fill="#e1e1e1" d="M 529.5,513.5 C 530.805,515.397 531.471,517.731 531.5,520.5C 531.333,522.833 531.167,525.167 531,527.5C 526.92,524.543 522.753,521.71 518.5,519C 522.721,518.198 526.387,516.365 529.5,513.5 Z"/></g>
<g><path style="opacity:1" fill="#eeeeee" d="M 506.5,514.5 C 509.354,514.924 512.021,515.924 514.5,517.5C 515.521,518.002 515.688,518.668 515,519.5C 508.5,526 502,532.5 495.5,539C 494.833,539.667 494.167,539.667 493.5,539C 491.245,535.232 489.578,531.232 488.5,527C 494.679,522.97 500.679,518.804 506.5,514.5 Z"/></g>
<g><path style="opacity:0.337" fill="#818181" d="M 438.5,514.5 C 439.782,515.708 439.782,517.042 438.5,518.5C 437.893,518.376 437.56,518.043 437.5,517.5C 438.404,516.791 438.737,515.791 438.5,514.5 Z"/></g>
<g><path style="opacity:0.008" fill="#4c4c4c" d="M 753.5,517.5 C 754.776,518.386 754.776,519.386 753.5,520.5C 752.893,520.376 752.56,520.043 752.5,519.5C 753.338,519.158 753.672,518.492 753.5,517.5 Z"/></g>
<g><path style="opacity:1" fill="#f7f7f7" d="M 427.5,520.5 C 432.543,524.377 436.71,529.043 440,534.5C 440.494,536.134 440.66,537.801 440.5,539.5C 443.246,539.928 444.913,541.594 445.5,544.5C 443.374,547.919 441.374,551.419 439.5,555C 428.146,555.245 416.813,554.745 405.5,553.5C 402.492,548.828 398.825,544.828 394.5,541.5C 404.833,540.833 415.167,540.167 425.5,539.5C 426.167,533.167 426.833,526.833 427.5,520.5 Z"/></g>
<g><path style="opacity:0.797" fill="#b5b5b5" d="M 427.5,520.5 C 426.833,526.833 426.167,533.167 425.5,539.5C 425.17,532.8 425.503,526.134 426.5,519.5C 427.107,519.624 427.44,519.957 427.5,520.5 Z"/></g>
<g><path style="opacity:1" fill="#f7f7f7" d="M 517.5,520.5 C 522.404,523.23 526.904,526.564 531,530.5C 531.499,535.155 531.666,539.821 531.5,544.5C 569.501,544.333 607.501,544.5 645.5,545C 640.595,553.62 637.595,562.786 636.5,572.5C 634.806,577.257 634.306,582.257 635,587.5C 635.333,586.167 635.667,584.833 636,583.5C 636.5,594.495 636.667,605.495 636.5,616.5C 630.602,618.064 626.602,621.731 624.5,627.5C 623.5,627.833 622.833,628.5 622.5,629.5C 621.183,606.294 621.183,582.961 622.5,559.5C 613.348,558.506 604.015,558.173 594.5,558.5C 594.5,557.167 594.5,555.833 594.5,554.5C 594.664,551.813 594.497,549.146 594,546.5C 593.586,546.957 593.086,547.291 592.5,547.5C 591.653,551.492 591.32,555.325 591.5,559C 571.503,559.5 551.503,559.667 531.5,559.5C 531.333,570.505 531.5,581.505 532,592.5C 545.667,606.167 559.333,619.833 573,633.5C 573.667,650.5 573.667,667.5 573,684.5C 568.884,696.511 565.384,708.678 562.5,721C 561.863,722.713 560.863,722.879 559.5,721.5C 558.667,694.173 558.167,666.839 558,639.5C 549.36,630.86 540.694,622.194 532,613.5C 531.5,639.831 531.333,666.165 531.5,692.5C 525.412,693.19 522.079,696.523 521.5,702.5C 520.167,702.5 518.833,702.5 517.5,702.5C 517.832,667.663 517.498,632.996 516.5,598.5C 513.527,594.86 510.194,591.527 506.5,588.5C 507.11,587.609 507.443,586.609 507.5,585.5C 506.86,582.352 505.86,582.019 504.5,584.5C 503.833,584.5 503.167,584.5 502.5,584.5C 501.201,578.226 499.034,572.226 496,566.5C 494.608,563.178 494.441,559.845 495.5,556.5C 502.521,562.854 509.188,569.521 515.5,576.5C 515.56,577.043 515.893,577.376 516.5,577.5C 517.5,558.512 517.833,539.512 517.5,520.5 Z"/></g>
<g><path style="opacity:0.914" fill="#cfcfcf" d="M 517.5,520.5 C 517.833,539.512 517.5,558.512 516.5,577.5C 515.893,577.376 515.56,577.043 515.5,576.5C 516.155,557.264 516.821,538.597 517.5,520.5 Z"/></g>
<g><path style="opacity:1" fill="#f5f5f5" d="M 480.5,531.5 C 483.488,535.616 486.155,540.116 488.5,545C 488.429,549.717 488.262,554.55 488,559.5C 487.086,561.664 485.919,563.664 484.5,565.5C 480.648,561.814 476.648,558.314 472.5,555C 465.253,554.188 458.086,554.354 451,555.5C 451.953,551.383 453.12,547.216 454.5,543C 454.265,542.127 453.931,541.293 453.5,540.5C 460.142,539.669 466.809,539.169 473.5,539C 476.039,536.63 478.372,534.13 480.5,531.5 Z"/></g>
<g><path style="opacity:0.87" fill="#c4c4c4" d="M 309.5,539.5 C 318.839,539.334 328.173,539.5 337.5,540C 336.956,540.717 336.289,541.217 335.5,541.5C 326.833,540.833 318.167,540.167 309.5,539.5 Z"/></g>
<g><path style="opacity:0.905" fill="#cbcbcb" d="M 425.5,539.5 C 415.167,540.167 404.833,540.833 394.5,541.5C 393.711,541.217 393.044,540.717 392.5,540C 403.495,539.5 414.495,539.333 425.5,539.5 Z"/></g>
<g><path style="opacity:1" fill="#f7f7f7" d="M 688.5,563.5 C 688.813,567.042 688.479,570.375 687.5,573.5C 682.5,569.167 677.833,564.5 673.5,559.5C 663.292,559.158 653.292,558.158 643.5,556.5C 644.837,552.327 646.837,548.494 649.5,545C 658.833,544.333 668.167,544.333 677.5,545C 680,548.167 682.5,551.333 685,554.5C 686.741,557.309 687.908,560.309 688.5,563.5 Z"/></g>
<g><path style="opacity:1" fill="#b0b0b0" d="M 687.5,545.5 C 688.568,544.566 689.901,544.232 691.5,544.5C 691.306,549.403 689.973,549.736 687.5,545.5 Z"/></g>
<g><path style="opacity:0.444" fill="#8d8d8d" d="M 332.5,545.5 C 336.684,546.166 341.018,546.833 345.5,547.5C 345.376,548.107 345.043,548.44 344.5,548.5C 340.316,547.834 335.982,547.167 331.5,546.5C 331.624,545.893 331.957,545.56 332.5,545.5 Z"/></g>
<g><path style="opacity:1" fill="#f3f3f3" d="M 315.5,614.5 C 318.719,608.609 323.052,603.609 328.5,599.5C 329.791,599.737 330.791,599.404 331.5,598.5C 332.5,598.167 333.167,597.5 333.5,596.5C 334.167,596.5 334.5,596.167 334.5,595.5C 337.028,593.11 338.528,590.11 339,586.5C 340.667,584.833 342.333,583.167 344,581.5C 345.978,582.816 347.478,582.316 348.5,580C 346.941,579.02 345.274,578.187 343.5,577.5C 348.05,572.239 352.716,567.072 357.5,562C 355.866,561.506 354.199,561.34 352.5,561.5C 351.833,561.5 351.5,561.167 351.5,560.5C 353.708,558.716 354.374,556.55 353.5,554C 354.115,551.485 355.115,549.152 356.5,547C 363.5,546.333 370.5,546.333 377.5,547C 379.712,549.043 381.712,551.209 383.5,553.5C 382.778,555.944 381.778,558.278 380.5,560.5C 372.983,567.183 365.983,574.35 359.5,582C 360.784,582.684 361.951,582.517 363,581.5C 363.667,582.167 363.667,582.833 363,583.5C 350.351,597.65 337.518,611.65 324.5,625.5C 321.731,621.619 318.731,617.952 315.5,614.5 Z"/></g>
<g><path style="opacity:0.106" fill="#5c5d5c" d="M 383.5,548.5 C 382.833,547.167 382.833,547.167 383.5,548.5 Z"/></g>
<g><path style="opacity:0.078" fill="#575857" d="M 383.5,548.5 C 384.833,549.167 384.833,549.167 383.5,548.5 Z"/></g>
<g><path style="opacity:1" fill="#e5e5e5" d="M 386.5,551.5 C 388.371,551.859 389.871,552.859 391,554.5C 393.34,556.791 394.673,559.458 395,562.5C 390.92,561.7 386.753,561.2 382.5,561C 383.975,557.885 385.308,554.718 386.5,551.5 Z"/></g>
<g><path style="opacity:0.758" fill="#a7a7a7" d="M 594.5,554.5 C 594.5,555.833 594.5,557.167 594.5,558.5C 604.015,558.173 613.348,558.506 622.5,559.5C 612.833,559.5 603.167,559.5 593.5,559.5C 593.216,557.585 593.549,555.919 594.5,554.5 Z"/></g>
<g><path style="opacity:0.757" fill="#b2b2b2" d="M 643.5,556.5 C 653.292,558.158 663.292,559.158 673.5,559.5C 663.167,559.5 652.833,559.5 642.5,559.5C 642.263,558.209 642.596,557.209 643.5,556.5 Z"/></g>
<g><path style="opacity:0.706" fill="#a8a8a8" d="M 736.5,554.5 C 736.5,556.167 736.5,557.833 736.5,559.5C 722.323,559.829 708.323,559.496 694.5,558.5C 708.167,558.5 721.833,558.5 735.5,558.5C 735.232,556.901 735.566,555.568 736.5,554.5 Z"/></g>
<g><path style="opacity:0.004" fill="#484848" d="M 351.5,560.5 C 351.5,561.167 351.833,561.5 352.5,561.5C 352.44,562.043 352.107,562.376 351.5,562.5C 350.227,561.743 350.227,561.077 351.5,560.5 Z"/></g>
<g><path style="opacity:0.996" fill="#b6b6b6" d="M 697.5,562.5 C 696.833,565.833 696.167,569.167 695.5,572.5C 695.759,568.76 695.426,565.094 694.5,561.5C 695.86,560.335 696.86,560.668 697.5,562.5 Z"/></g>
<g><path style="opacity:1" fill="#f0f0f0" d="M 697.5,562.5 C 710.465,574.965 723.298,587.631 736,600.5C 736.499,606.491 736.666,612.491 736.5,618.5C 735.833,619.167 735.167,619.833 734.5,620.5C 720.868,607.369 707.368,594.035 694,580.5C 694.16,577.841 694.66,575.174 695.5,572.5C 696.167,569.167 696.833,565.833 697.5,562.5 Z"/></g>
<g><path style="opacity:1" fill="#b7b7b7" d="M 493.5,574.5 C 490.758,573.062 488.424,571.062 486.5,568.5C 486.919,567.328 487.585,566.328 488.5,565.5C 490.415,568.326 492.081,571.326 493.5,574.5 Z"/></g>
<g><path style="opacity:0.784" fill="#9f9f9f" d="M 688.5,563.5 C 689.645,567.311 689.812,571.311 689,575.5C 688.283,574.956 687.783,574.289 687.5,573.5C 688.479,570.375 688.813,567.042 688.5,563.5 Z"/></g>
<g><path style="opacity:0.004" fill="#525252" d="M 493.5,574.5 C 494.289,574.783 494.956,575.283 495.5,576C 494.184,576.528 493.517,576.028 493.5,574.5 Z"/></g>
<g><path style="opacity:0.44" fill="#878787" d="M 636.5,572.5 C 637.716,587.323 637.716,601.989 636.5,616.5C 636.667,605.495 636.5,594.495 636,583.5C 635.667,584.833 635.333,586.167 635,587.5C 634.306,582.257 634.806,577.257 636.5,572.5 Z"/></g>
<g><path style="opacity:0.906" fill="#9c9c9c" d="M 336.5,584.5 C 337.71,586.176 337.21,587.51 335,588.5C 334.7,586.934 335.2,585.601 336.5,584.5 Z"/></g>
<g><path style="opacity:0.431" fill="#828282" d="M 502.5,584.5 C 503.167,584.5 503.833,584.5 504.5,584.5C 505.338,584.842 505.672,585.508 505.5,586.5C 503.973,586.573 502.973,585.906 502.5,584.5 Z"/></g>
<g><path style="opacity:0.961" fill="#898989" d="M 507.5,585.5 C 507.443,586.609 507.11,587.609 506.5,588.5C 505.662,588.158 505.328,587.492 505.5,586.5C 506.167,586.167 506.833,585.833 507.5,585.5 Z"/></g>
<g><path style="opacity:1" fill="#9d9d9d" d="M 334.5,595.5 C 333.833,595.5 333.5,595.833 333.5,596.5C 332.761,596.369 332.094,596.536 331.5,597C 330.262,597.69 330.262,598.19 331.5,598.5C 330.791,599.404 329.791,599.737 328.5,599.5C 330.075,596.418 332.242,593.751 335,591.5C 335.195,592.819 335.028,594.153 334.5,595.5 Z"/></g>
<g><path style="opacity:0.914" fill="#cfcfcf" d="M 516.5,598.5 C 517.498,632.996 517.832,667.663 517.5,702.5C 518.833,702.5 520.167,702.5 521.5,702.5C 520.081,703.451 518.415,703.784 516.5,703.5C 516.5,668.5 516.5,633.5 516.5,598.5 Z"/></g>
<g><path style="opacity:1" fill="#f0f0f0" d="M 737.5,623.5 C 737.5,622.5 737.5,621.5 737.5,620.5C 737.682,615.041 738.515,609.707 740,604.5C 750,614.5 760,624.5 770,634.5C 772.18,638.414 771.846,642.081 769,645.5C 758.473,655.36 748.306,665.527 738.5,676C 728.802,675.953 725.968,671.453 730,662.5C 737.681,654.986 745.181,647.319 752.5,639.5C 747.478,634.146 742.478,628.813 737.5,623.5 Z"/></g>
<g><path style="opacity:1" fill="#c0c0c0" d="M 315.5,614.5 C 316.048,616.394 317.048,618.06 318.5,619.5C 317.3,620.292 315.967,620.292 314.5,619.5C 314.5,618.833 314.167,618.5 313.5,618.5C 311.852,616.128 312.519,614.794 315.5,614.5 Z"/></g>
<g><path style="opacity:1" fill="#f1f1f1" d="M 313.5,618.5 C 314.167,618.5 314.5,618.833 314.5,619.5C 317.191,622.195 319.525,625.195 321.5,628.5C 317.568,633.355 313.401,638.022 309,642.5C 308.781,643.938 308.281,645.271 307.5,646.5C 304.301,644.136 300.968,641.97 297.5,640C 295.671,638.887 294.837,637.387 295,635.5C 300.167,629.667 305.333,623.833 310.5,618C 311.577,617.53 312.577,617.697 313.5,618.5 Z"/></g>
<g><path style="opacity:0.004" fill="#555555" d="M 736.5,618.5 C 736.328,619.492 736.662,620.158 737.5,620.5C 737.5,621.5 737.5,622.5 737.5,623.5C 736.5,622.5 735.5,621.5 734.5,620.5C 735.167,619.833 735.833,619.167 736.5,618.5 Z"/></g>
<g><path style="opacity:0.624" fill="#767676" d="M 634.5,622.5 C 635.209,621.596 636.209,621.263 637.5,621.5C 637.737,622.791 637.404,623.791 636.5,624.5C 636.5,623.167 635.833,622.5 634.5,622.5 Z"/></g>
<g><path style="opacity:1" fill="#f6f6f6" d="M 451.5,655.5 C 443.427,656.132 435.76,655.465 428.5,653.5C 430.307,640.19 437.307,630.69 449.5,625C 454.325,623.105 459.325,622.272 464.5,622.5C 464.831,630.196 464.497,637.862 463.5,645.5C 457.454,646.505 453.454,649.839 451.5,655.5 Z"/></g>
<g><path style="opacity:1" fill="#e9e9e9" d="M 634.5,622.5 C 635.833,622.5 636.5,623.167 636.5,624.5C 633.271,629.955 630.271,635.621 627.5,641.5C 627.667,641.833 627.833,642.167 628,642.5C 630,639.334 632.5,636.668 635.5,634.5C 636.833,640.167 636.833,645.833 635.5,651.5C 634.89,650.609 634.557,649.609 634.5,648.5C 634.217,647.711 633.717,647.044 633,646.5C 632.26,647.749 632.427,648.749 633.5,649.5C 634.17,652.673 635.336,655.673 637,658.5C 637.667,693.167 637.667,727.833 637,762.5C 636.667,762.833 636.333,763.167 636,763.5C 631.274,761.981 626.774,759.981 622.5,757.5C 621.177,714.846 621.177,672.179 622.5,629.5C 623.833,629.5 624.5,628.833 624.5,627.5C 627.019,624.241 630.352,622.574 634.5,622.5 Z"/></g>
<g><path style="opacity:1" fill="#e8e8e8" d="M 277.5,628.5 C 282.138,631.489 286.805,634.489 291.5,637.5C 292.833,640.5 292.833,643.5 291.5,646.5C 287.218,644.68 282.885,643.014 278.5,641.5C 277.508,637.217 277.174,632.884 277.5,628.5 Z"/></g>
<g><path style="opacity:0.396" fill="#898989" d="M 635.5,651.5 C 636.833,645.833 636.833,640.167 635.5,634.5C 635.783,633.711 636.283,633.044 637,632.5C 637.667,639.5 637.667,646.5 637,653.5C 636.283,652.956 635.783,652.289 635.5,651.5 Z"/></g>
<g><path style="opacity:0.184" fill="#777777" d="M 634.5,648.5 C 633.833,648.5 633.5,648.833 633.5,649.5C 632.427,648.749 632.26,647.749 633,646.5C 633.717,647.044 634.217,647.711 634.5,648.5 Z"/></g>
<g><path style="opacity:1" fill="#e6e6e6" d="M 293.5,648.5 C 297.34,649.993 301.007,651.659 304.5,653.5C 302.517,660.139 299.017,665.806 294,670.5C 293.5,663.174 293.334,655.841 293.5,648.5 Z"/></g>
<g><path style="opacity:1" fill="#e1e1e1" d="M 306.5,653.5 C 308.463,660.424 309.13,667.757 308.5,675.5C 304.31,675.263 300.31,674.429 296.5,673C 302.388,667.854 305.721,661.354 306.5,653.5 Z"/></g>
<g><path style="opacity:0.758" fill="#a6a6a6" d="M 428.5,653.5 C 435.76,655.465 443.427,656.132 451.5,655.5C 443.684,656.492 435.684,656.826 427.5,656.5C 427.263,655.209 427.596,654.209 428.5,653.5 Z"/></g>
<g><path style="opacity:1" fill="#f7f7f7" d="M 380.5,683.5 C 384.544,680.78 387.544,677.113 389.5,672.5C 391.543,671.421 392.876,669.754 393.5,667.5C 394.29,666.206 395.29,665.039 396.5,664C 401.362,662.035 406.362,660.535 411.5,659.5C 412.833,667.5 412.833,675.5 411.5,683.5C 402.659,687.18 399.826,693.513 403,702.5C 404.739,704.741 406.906,706.408 409.5,707.5C 410.568,715.293 409.902,722.96 407.5,730.5C 394.325,728.609 385.158,721.276 380,708.5C 376.551,700.051 376.718,691.717 380.5,683.5 Z"/></g>
<g><path style="opacity:1" fill="#f4f4f4" d="M 417.5,731.5 C 417.309,723.799 417.642,716.132 418.5,708.5C 420.781,707.392 422.948,706.058 425,704.5C 429.079,706.575 432.579,709.408 435.5,713C 437.055,714.289 438.721,714.956 440.5,715C 436.215,710.26 432.048,705.427 428,700.5C 427.333,687.167 427.333,673.833 428,660.5C 435.747,659.518 443.58,659.185 451.5,659.5C 451.051,673.906 451.551,688.239 453,702.5C 457.571,708.539 463.238,709.872 470,706.5C 471.49,707.317 472.99,708.15 474.5,709C 478.783,714.238 481.616,720.072 483,726.5C 473.067,732.214 462.901,732.881 452.5,728.5C 451.232,729.428 449.899,729.595 448.5,729C 445.368,727.365 442.368,725.532 439.5,723.5C 433.113,728.74 425.78,731.407 417.5,731.5 Z"/></g>
<g><path style="opacity:0.847" fill="#afafaf" d="M 725.5,666.5 C 726.776,667.386 726.776,668.386 725.5,669.5C 724.438,668.575 724.438,667.575 725.5,666.5 Z"/></g>
<g><path style="opacity:0.161" fill="#696969" d="M 390.5,668.5 C 391.209,667.596 392.209,667.263 393.5,667.5C 392.876,669.754 391.543,671.421 389.5,672.5C 389.511,670.983 390.177,669.816 391.5,669C 391.272,668.601 390.938,668.435 390.5,668.5 Z"/></g>
<g><path style="opacity:1" fill="#f1f1f1" d="M 718.5,673.5 C 722.906,675.371 726.573,678.204 729.5,682C 728.126,684.583 726.626,687.083 725,689.5C 716.988,697.013 709.154,704.679 701.5,712.5C 699.592,708.349 697.425,704.349 695,700.5C 694.333,699.5 694.333,698.5 695,697.5C 703.036,689.632 710.869,681.632 718.5,673.5 Z"/></g>
<g><path style="opacity:1" fill="#bdbdbd" d="M 390.5,668.5 C 390.938,668.435 391.272,668.601 391.5,669C 390.177,669.816 389.511,670.983 389.5,672.5C 387.544,677.113 384.544,680.78 380.5,683.5C 382.272,677.406 385.606,672.406 390.5,668.5 Z"/></g>
<g><path style="opacity:1" fill="#fafafa" d="M 299.5,677.5 C 303.315,676.829 306.149,678.162 308,681.5C 308.5,695.496 308.667,709.496 308.5,723.5C 303.056,724.108 298.056,723.442 293.5,721.5C 294.496,707.01 294.829,692.343 294.5,677.5C 296.167,677.5 297.833,677.5 299.5,677.5 Z"/></g>
<g><path style="opacity:0.945" fill="#c8c8c8" d="M 299.5,677.5 C 297.833,677.5 296.167,677.5 294.5,677.5C 294.829,692.343 294.496,707.01 293.5,721.5C 293.5,706.5 293.5,691.5 293.5,676.5C 295.735,676.205 297.735,676.539 299.5,677.5 Z"/></g>
<g><path style="opacity:1" fill="#f2f2f2" d="M 529.5,700.5 C 530.497,716.992 530.83,733.658 530.5,750.5C 526.03,751.486 521.363,751.819 516.5,751.5C 516.333,736.496 516.5,721.496 517,706.5C 518,705.833 519,705.167 520,704.5C 521.163,706.285 521.83,708.285 522,710.5C 524.321,713.033 526.321,712.699 528,709.5C 528.259,706.413 528.759,703.413 529.5,700.5 Z"/></g>
<g><path style="opacity:0.157" fill="#777777" d="M 690.5,701.5 C 692.625,702.368 692.791,703.368 691,704.5C 689.317,703.824 689.15,702.824 690.5,701.5 Z"/></g>
<g><path style="opacity:1" fill="#f1f1f1" d="M 691.5,709.5 C 695.427,709.256 697.76,711.09 698.5,715C 694.833,719.333 690.833,723.333 686.5,727C 693.211,733.376 699.545,740.043 705.5,747C 703.864,752.242 702.03,757.409 700,762.5C 690,752.5 680,742.5 670,732.5C 668,729.167 668,725.833 670,722.5C 673.167,719.333 676.333,716.167 679.5,713C 683.593,711.758 687.593,710.591 691.5,709.5 Z"/></g>
<g><path style="opacity:1" fill="#e4e4e4" d="M 571.5,712.5 C 572.117,712.611 572.617,712.944 573,713.5C 573.667,719.833 573.667,726.167 573,732.5C 572.311,733.357 571.478,734.023 570.5,734.5C 568.688,731.571 567.354,728.405 566.5,725C 568.068,720.711 569.735,716.545 571.5,712.5 Z"/></g>
<g><path style="opacity:0.796" fill="#b0b0b0" d="M 418.5,708.5 C 417.642,716.132 417.309,723.799 417.5,731.5C 416.346,725.013 416.179,718.346 417,711.5C 417.232,710.263 417.732,709.263 418.5,708.5 Z"/></g>
<g><path style="opacity:0.914" fill="#cbcbcb" d="M 530.5,750.5 C 530.83,733.658 530.497,716.992 529.5,700.5C 529.393,698.621 529.893,698.288 531,699.5C 531.828,716.672 531.662,733.672 530.5,750.5 Z"/></g>
<g><path style="opacity:0.573" fill="#868686" d="M 443.5,717.5 C 445.757,718.562 446.923,720.228 447,722.5C 445.198,721.211 444.031,719.544 443.5,717.5 Z"/></g>
<g><path style="opacity:0.535" fill="#919191" d="M 297.5,727.5 C 292.833,727.5 288.167,727.5 283.5,727.5C 283.5,729.833 283.5,732.167 283.5,734.5C 282.527,732.052 282.194,729.385 282.5,726.5C 287.695,726.179 292.695,726.513 297.5,727.5 Z"/></g>
<g><path style="opacity:1" fill="#f5f5f5" d="M 297.5,727.5 C 303.13,733.631 308.964,739.631 315,745.5C 320.334,755.356 325.501,765.356 330.5,775.5C 327.597,776.904 324.93,776.571 322.5,774.5C 309.095,761.43 296.095,748.096 283.5,734.5C 283.5,732.167 283.5,729.833 283.5,727.5C 288.167,727.5 292.833,727.5 297.5,727.5 Z"/></g>
<g><path style="opacity:1" fill="#ededed" d="M 556.5,726.5 C 558.144,726.286 559.644,726.62 561,727.5C 561.894,732.309 562.894,736.976 564,741.5C 559.833,745.667 555.667,749.833 551.5,754C 545.35,753.803 539.35,752.637 533.5,750.5C 541.188,742.479 548.855,734.479 556.5,726.5 Z"/></g>
<g><path style="opacity:0.992" fill="#c0c0c0" d="M 411.5,727.5 C 412.782,728.708 412.782,730.042 411.5,731.5C 410.708,730.3 410.708,728.967 411.5,727.5 Z"/></g>
<g><path style="opacity:1" fill="#f3f3f3" d="M 325.5,742.5 C 340.584,757.083 355.584,771.917 370.5,787C 364.693,787.829 359.36,789.495 354.5,792C 348.167,785.667 341.833,779.333 335.5,773C 337.256,772.798 338.922,772.298 340.5,771.5C 335.219,761.937 330.219,752.27 325.5,742.5 Z"/></g>
<g><path style="opacity:1" fill="#ebebeb" d="M 708.5,750.5 C 715.124,755.124 720.791,760.791 725.5,767.5C 723.505,772.16 721.005,776.494 718,780.5C 712.985,775.652 708.152,770.652 703.5,765.5C 705.372,760.55 707.039,755.55 708.5,750.5 Z"/></g>
<g><path style="opacity:1" fill="#f4f4f4" d="M 634.5,764.5 C 636.458,778.924 637.124,793.59 636.5,808.5C 658.833,808.5 681.167,808.5 703.5,808.5C 702.031,813.574 700.364,818.574 698.5,823.5C 644.499,823.333 590.499,823.5 536.5,824C 532.2,827.298 528.2,830.965 524.5,835C 519.572,836.643 516.072,835.143 514,830.5C 513.667,820.833 513.333,811.167 513,801.5C 507.682,807.319 502.182,812.985 496.5,818.5C 495.515,816.228 494.681,813.895 494,811.5C 489.955,815.881 485.622,819.881 481,823.5C 479.444,818.918 477.277,814.585 474.5,810.5C 474.5,809.833 474.5,809.167 474.5,808.5C 480.131,803.37 485.631,798.036 491,792.5C 491.895,794.804 492.729,797.138 493.5,799.5C 500.152,793.348 506.652,787.015 513,780.5C 513.19,774.584 513.69,768.751 514.5,763C 516.833,762.833 519.167,762.667 521.5,762.5C 524.287,762.574 526.787,763.24 529,764.5C 533.977,763.577 538.811,764.244 543.5,766.5C 540.904,770.019 538.071,773.352 535,776.5C 533.827,780.337 531.827,783.671 529,786.5C 528.5,797.828 528.333,809.162 528.5,820.5C 532.226,820.823 535.893,820.489 539.5,819.5C 541.833,815.347 544.333,811.347 547,807.5C 571.761,808.661 596.594,808.827 621.5,808C 622.074,792.459 622.074,776.626 621.5,760.5C 625.837,761.835 630.171,763.168 634.5,764.5 Z"/></g>
<g><path style="opacity:1" fill="#f2f2f2" d="M 736.5,764.5 C 751.748,778.245 766.581,792.578 781,807.5C 784.478,811.227 784.311,814.727 780.5,818C 773.096,820.47 765.596,820.97 758,819.5C 757.437,814.817 756.27,810.317 754.5,806C 755.167,805.667 755.833,805.333 756.5,805C 750.946,799.446 745.446,793.946 740,788.5C 737.148,784.796 734.815,780.796 733,776.5C 732.333,774.833 732.333,773.167 733,771.5C 734.705,769.423 735.872,767.09 736.5,764.5 Z"/></g>
<g><path style="opacity:0.396" fill="#797979" d="M 634.5,764.5 C 635.5,764.5 636.5,764.5 637.5,764.5C 637.5,778.833 637.5,793.167 637.5,807.5C 659.673,807.169 681.673,807.503 703.5,808.5C 681.167,808.5 658.833,808.5 636.5,808.5C 637.124,793.59 636.458,778.924 634.5,764.5 Z"/></g>
<g><path style="opacity:0.459" fill="#8b8b8b" d="M 368.5,791.5 C 369.302,790.115 369.969,790.282 370.5,792C 370.43,792.765 370.097,793.265 369.5,793.5C 369.672,792.508 369.338,791.842 368.5,791.5 Z"/></g>
<g><path style="opacity:1" fill="#f4f4f4" d="M 387.5,804.5 C 383.635,805.706 381.635,808.373 381.5,812.5C 380.549,813.919 380.216,815.585 380.5,817.5C 372.702,810.202 365.035,802.702 357.5,795C 361.032,793.368 364.699,792.201 368.5,791.5C 369.338,791.842 369.672,792.508 369.5,793.5C 369.393,795.379 369.893,795.712 371,794.5C 371.471,792.754 372.138,791.087 373,789.5C 378.037,794.369 382.87,799.369 387.5,804.5 Z"/></g>
<g><path style="opacity:0.361" fill="#888888" d="M 368.5,796.5 C 368.5,797.167 368.833,797.5 369.5,797.5C 368.928,798.973 368.095,800.307 367,801.5C 366.401,799.465 366.901,797.799 368.5,796.5 Z"/></g>
<g><path style="opacity:1" fill="#f7f7f7" d="M 387.5,804.5 C 389.01,805.836 390.677,807.003 392.5,808C 416.406,808.827 440.239,808.66 464,807.5C 463.923,811.132 463.59,814.799 463,818.5C 461.649,820.019 460.149,821.352 458.5,822.5C 434.174,823.666 409.84,823.833 385.5,823C 384.29,821.961 383.29,820.794 382.5,819.5C 382.5,817.167 382.5,814.833 382.5,812.5C 383.349,809.319 385.015,806.652 387.5,804.5 Z"/></g>
<g><path style="opacity:1" fill="#e6e6e6" d="M 718.5,805.5 C 720.833,805.5 723.167,805.5 725.5,805.5C 725.497,810.527 725.164,815.527 724.5,820.5C 720.116,820.826 715.783,820.492 711.5,819.5C 714.736,815.27 717.069,810.603 718.5,805.5 Z"/></g>
<g><path style="opacity:1" fill="#f8f8f8" d="M 755.5,816.5 C 755.5,817.5 755.5,818.5 755.5,819.5C 746.833,819.5 738.167,819.5 729.5,819.5C 729.5,817.5 729.5,815.5 729.5,813.5C 729.5,810.833 729.5,808.167 729.5,805.5C 737.174,805.334 744.841,805.5 752.5,806C 754.352,809.239 755.352,812.739 755.5,816.5 Z"/></g>
<g><path style="opacity:1" fill="#8b8b8b" d="M 474.5,808.5 C 474.5,809.167 474.5,809.833 474.5,810.5C 472.24,809.762 472.073,808.762 474,807.5C 474.399,807.728 474.565,808.062 474.5,808.5 Z"/></g>
<g><path style="opacity:0.553" fill="#7b7b7b" d="M 381.5,812.5 C 381.833,812.5 382.167,812.5 382.5,812.5C 382.5,814.833 382.5,817.167 382.5,819.5C 381.5,819.167 380.833,818.5 380.5,817.5C 380.216,815.585 380.549,813.919 381.5,812.5 Z"/></g>
<g><path style="opacity:0.864" fill="#b5b5b5" d="M 729.5,813.5 C 729.5,815.5 729.5,817.5 729.5,819.5C 738.167,819.5 746.833,819.5 755.5,819.5C 755.5,818.5 755.5,817.5 755.5,816.5C 756.434,817.568 756.768,818.901 756.5,820.5C 747.167,820.5 737.833,820.5 728.5,820.5C 728.198,817.941 728.532,815.607 729.5,813.5 Z"/></g>
<g><path style="opacity:0.792" fill="#b2b2b2" d="M 469.5,819.5 C 478.784,823.316 478.117,824.316 467.5,822.5C 468.193,821.482 468.859,820.482 469.5,819.5 Z"/></g>
<g><path style="opacity:1" fill="#fafafa" d="M 880.5,829.5 C 881.498,856.328 881.831,883.328 881.5,910.5C 880.712,913.621 878.712,915.288 875.5,915.5C 853.993,915.831 832.66,915.497 811.5,914.5C 814.197,909.294 817.863,904.794 822.5,901C 837.496,900.5 852.496,900.333 867.5,900.5C 867.333,884.163 867.5,867.83 868,851.5C 872.938,844.627 877.104,837.293 880.5,829.5 Z"/></g>
<g><path style="opacity:0.458" fill="#8f8f8f" d="M 881.5,910.5 C 881.831,883.328 881.498,856.328 880.5,829.5C 880.369,828.624 880.702,827.957 881.5,827.5C 882.829,855.33 882.829,882.997 881.5,910.5 Z"/></g>
<g><path style="opacity:0.043" fill="#525252" d="M 855.5,849.5 C 855.5,850.167 855.833,850.5 856.5,850.5C 856.44,851.043 856.107,851.376 855.5,851.5C 854.227,850.743 854.227,850.077 855.5,849.5 Z"/></g>
<g><path style="opacity:1" fill="#f3f3f3" d="M 487.5,935.5 C 477.5,935.5 467.5,935.5 457.5,935.5C 457.5,933.833 457.5,932.167 457.5,930.5C 463.81,919.22 470.644,908.22 478,897.5C 478.498,894.183 478.665,890.85 478.5,887.5C 474.702,886.517 470.702,886.183 466.5,886.5C 466.5,890.167 466.5,893.833 466.5,897.5C 463.5,897.5 460.5,897.5 457.5,897.5C 457.193,891.907 457.527,886.407 458.5,881C 463.223,879.888 468.056,879.388 473,879.5C 477.167,879.667 481.333,879.833 485.5,880C 487.961,882.827 488.961,886.16 488.5,890C 488.507,893.258 488.007,896.425 487,899.5C 481.456,909.426 475.289,918.926 468.5,928C 474.833,928.333 481.167,928.667 487.5,929C 487.534,931.266 487.534,933.433 487.5,935.5 Z"/></g>
<g><path style="opacity:1" fill="#f1f1f1" d="M 497.5,879.5 C 506.173,879.334 514.84,879.5 523.5,880C 524.701,880.903 525.535,882.069 526,883.5C 526.667,899.833 526.667,916.167 526,932.5C 525.5,934.333 524.333,935.5 522.5,936C 514.167,936.667 505.833,936.667 497.5,936C 496.584,935.626 495.75,935.126 495,934.5C 494.333,916.833 494.333,899.167 495,881.5C 495.995,880.934 496.828,880.267 497.5,879.5 Z M 516.5,887.5 C 516.5,901.167 516.5,914.833 516.5,928.5C 512.5,928.5 508.5,928.5 504.5,928.5C 504.5,914.833 504.5,901.167 504.5,887.5C 508.5,887.5 512.5,887.5 516.5,887.5 Z"/></g>
<g><path style="opacity:1" fill="#f6f6f6" d="M 544.5,927.5 C 543.957,927.56 543.624,927.893 543.5,928.5C 549.798,929.496 556.132,929.83 562.5,929.5C 562.5,931.5 562.5,933.5 562.5,935.5C 552.5,935.5 542.5,935.5 532.5,935.5C 532.062,935.565 531.728,935.399 531.5,935C 532.207,932.48 533.04,929.98 534,927.5C 540.723,917.617 547.223,907.617 553.5,897.5C 554.482,894.038 554.815,890.371 554.5,886.5C 550.5,886.5 546.5,886.5 542.5,886.5C 541.521,889.625 541.187,892.958 541.5,896.5C 538.833,896.5 536.167,896.5 533.5,896.5C 533.5,891.833 533.5,887.167 533.5,882.5C 533.577,881.25 534.244,880.417 535.5,880C 543.833,879.333 552.167,879.333 560.5,880C 561.667,880.5 562.5,881.333 563,882.5C 563.667,887.833 563.667,893.167 563,898.5C 557.322,908.534 551.155,918.2 544.5,927.5 Z"/></g>
<g><path style="opacity:1" fill="#f4f4f4" d="M 583.5,879.5 C 586.898,879.18 590.232,879.513 593.5,880.5C 588.227,892.989 583.561,905.655 579.5,918.5C 582.5,918.5 585.5,918.5 588.5,918.5C 588.5,912.833 588.5,907.167 588.5,901.5C 591.5,901.5 594.5,901.5 597.5,901.5C 597.334,906.844 597.501,912.177 598,917.5C 599.356,918.38 600.856,918.714 602.5,918.5C 602.5,920.833 602.5,923.167 602.5,925.5C 600.833,925.5 599.167,925.5 597.5,925.5C 597.5,929.167 597.5,932.833 597.5,936.5C 594.5,936.5 591.5,936.5 588.5,936.5C 588.5,932.833 588.5,929.167 588.5,925.5C 581.5,925.5 574.5,925.5 567.5,925.5C 567.337,923.143 567.503,920.81 568,918.5C 573.272,905.511 578.439,892.511 583.5,879.5 Z"/></g>
<g><path style="opacity:0.118" fill="#5e5e5e" d="M 478.5,887.5 C 474.833,887.5 471.167,887.5 467.5,887.5C 467.813,891.042 467.479,894.375 466.5,897.5C 466.5,893.833 466.5,890.167 466.5,886.5C 470.702,886.183 474.702,886.517 478.5,887.5 Z"/></g>
<g><path style="opacity:0.118" fill="#646464" d="M 516.5,887.5 C 512.5,887.5 508.5,887.5 504.5,887.5C 504.5,901.167 504.5,914.833 504.5,928.5C 503.504,914.677 503.171,900.677 503.5,886.5C 508.032,886.182 512.366,886.515 516.5,887.5 Z"/></g>
<g><path style="opacity:0.675" fill="#8b8b8b" d="M 542.5,887.5 C 542.5,887.167 542.5,886.833 542.5,886.5C 546.5,886.5 550.5,886.5 554.5,886.5C 554.815,890.371 554.482,894.038 553.5,897.5C 553.5,894.167 553.5,890.833 553.5,887.5C 549.833,887.5 546.167,887.5 542.5,887.5 Z"/></g>
<g><path style="opacity:0.988" fill="#d0d0d0" d="M 533.5,882.5 C 533.5,887.167 533.5,891.833 533.5,896.5C 536.167,896.5 538.833,896.5 541.5,896.5C 541.187,892.958 541.521,889.625 542.5,886.5C 542.5,886.833 542.5,887.167 542.5,887.5C 542.5,890.833 542.5,894.167 542.5,897.5C 539.167,897.5 535.833,897.5 532.5,897.5C 532.179,892.305 532.513,887.305 533.5,882.5 Z"/></g>
<g><path style="opacity:0.91" fill="#cdcdcd" d="M 626.5,900.5 C 687.665,899.335 748.999,899.168 810.5,900C 809.956,900.717 809.289,901.217 808.5,901.5C 748.002,900.501 687.336,900.168 626.5,900.5 Z"/></g>
<g><path style="opacity:1" fill="#fbfbfb" d="M 626.5,900.5 C 687.336,900.168 748.002,900.501 808.5,901.5C 804.755,904.916 801.755,908.916 799.5,913.5C 741.836,914.667 684.17,914.833 626.5,914C 622.788,911.487 621.622,907.987 623,903.5C 623.759,901.937 624.926,900.937 626.5,900.5 Z"/></g>
<g><path style="opacity:0.067" fill="#555555" d="M 811.5,914.5 C 832.66,915.497 853.993,915.831 875.5,915.5C 853.996,916.828 832.33,916.828 810.5,915.5C 810.624,914.893 810.957,914.56 811.5,914.5 Z"/></g>
<g><path style="opacity:0.905" fill="#afafaf" d="M 544.5,927.5 C 550.645,928.49 556.978,928.823 563.5,928.5C 563.5,931.167 563.5,933.833 563.5,936.5C 552.986,936.828 542.653,936.494 532.5,935.5C 542.653,936.494 552.986,936.828 563.5,936.5C 563.5,933.833 563.5,931.167 563.5,928.5C 556.978,928.823 550.645,928.49 544.5,927.5 Z"/></g>
<g><path style="opacity:0.412" fill="#8c8c8c" d="M 457.5,930.5 C 457.5,932.167 457.5,933.833 457.5,935.5C 467.5,935.5 477.5,935.5 487.5,935.5C 477.347,936.494 467.014,936.828 456.5,936.5C 456.205,934.265 456.539,932.265 457.5,930.5 Z"/></g>
<g><path style="opacity:0.078" fill="#000000" d="M -0.5,1011.5 C -0.5,1011.17 -0.5,1010.83 -0.5,1010.5C 359.5,1010.5 719.5,1010.5 1079.5,1010.5C 1079.5,1010.83 1079.5,1011.17 1079.5,1011.5C 719.5,1011.5 359.5,1011.5 -0.5,1011.5 Z"/></g>
</svg>
